<svg xmlns="http://www.w3.org/2000/svg" fill="#4F5D75" viewBox="0 0 96 96" x="0px" y="0px"><g data-name="Layer 2"><g><path d="M95.62,45.26a1.49,1.49,0,0,0-.42-1.64l0,0L79.84,30.31V1.5A1.5,1.5,0,0,0,78.33,0h-61a1.5,1.5,0,0,0-1.5,1.5V30.31L.52,43.52l-.05.05-.08.08a1.51,1.51,0,0,0-.15.2l-.05.08a1.53,1.53,0,0,0-.13.32h0a1.5,1.5,0,0,0,0,.34s0,0,0,0V95.18a1.5,1.5,0,0,0,1.5,1.5H94.12a1.48,1.48,0,0,0,.45-.08l.07,0a1.48,1.48,0,0,0,.37-.2l.06-.05a1.5,1.5,0,0,0,.29-.32v0a1.51,1.51,0,0,0,.18-.4l0,0s0,0,0,0a1.48,1.48,0,0,0,0-.35Zm-3,1.92V92.65L50.94,69.91Zm-1.12-2.8L79.84,50.74V34.28ZM76.83,3l0,49.37-29,15.84-29-15.84V3Zm-61,47.73L4.12,44.37l11.66-10.1ZM3,93.68V47.18l85.24,46.5Z"/><path d="M33.07,24.05H62.54a1.5,1.5,0,0,0,0-3H33.07a1.5,1.5,0,1,0,0,3Z"/><path d="M33.07,40.89H62.54a1.5,1.5,0,0,0,0-3H33.07a1.5,1.5,0,1,0,0,3Z"/></g></g></svg>
