<svg xmlns="http://www.w3.org/2000/svg" fill="#4F5D75" viewBox="0 0 96 96" x="0px" y="0px"><g data-name="Layer 2"><g><path d="M92.91,74.41,78.37,59.86a7.72,7.72,0,0,0-5.5-2.19A8.35,8.35,0,0,0,67,60.06l-7.07,7.07-1.14-.63a72.15,72.15,0,0,1-17.5-12.66A72.42,72.42,0,0,1,28.58,36.27L28,35.2l7.08-7.07a8.09,8.09,0,0,0,.19-11.4L20.7,2.2A7.69,7.69,0,0,0,15.2,0,8.34,8.34,0,0,0,9.31,2.4L5.74,6a1.51,1.51,0,0,0-.22.28l-.29.48a24.49,24.49,0,0,0-3.4,6A25.24,25.24,0,0,0,.3,18.91C-1.64,35,5.68,49.68,25.55,69.55,49.07,93.07,68.89,94.89,74.4,94.89a18,18,0,0,0,1.81-.07,25.25,25.25,0,0,0,6.17-1.56,23.87,23.87,0,0,0,6.05-3.44l.82-.64.12-.11,3.35-3.29A8.06,8.06,0,0,0,92.91,74.41Zm-2.29,9.25-3.28,3.22-.75.59a20.9,20.9,0,0,1-5.29,3,22.24,22.24,0,0,1-5.42,1.37c-.05,0-.56.06-1.48.06-5.22,0-24-1.76-46.73-24.46C8.53,48.29,1.46,34.34,3.28,19.26a22.29,22.29,0,0,1,1.34-5.4,21.46,21.46,0,0,1,3-5.33l.1-.14L8,8l3.45-3.47A5.32,5.32,0,0,1,15.2,3a4.71,4.71,0,0,1,3.38,1.32L33.12,18.85A5.09,5.09,0,0,1,32.93,26L25,33.89a1.5,1.5,0,0,0-.25,1.8l1.16,2A75,75,0,0,0,39.15,56,74.78,74.78,0,0,0,57.32,69.12l2.13,1.18A1.5,1.5,0,0,0,61.23,70l7.87-7.87a5.33,5.33,0,0,1,3.76-1.51A4.74,4.74,0,0,1,76.25,62L90.78,76.54h0A4.76,4.76,0,0,1,92.17,80,5.27,5.27,0,0,1,90.61,83.66Z"/></g></g></svg>
