<svg xmlns="http://www.w3.org/2000/svg" xmlns:xlink="http://www.w3.org/1999/xlink" viewBox="0 0 100 100" version="1.1" x="0px" y="0px"><g><path d="M34.0888508,47.3313835 C38.2200625,47.3313835 41.5690709,43.9266526 41.5690709,39.7267035 C41.5690709,35.5267547 38.2200625,32.1220238 34.0888508,32.1220238 C29.9576393,32.1220238 26.608631,35.5267547 26.608631,39.7267035 C26.608631,43.9266526 29.9576393,47.3313835 34.0888508,47.3313835 C34.0888508,47.3313835 29.9576393,47.3313835 34.0888508,47.3313835 L34.0888508,47.3313835 L34.0888508,47.3313835 Z"></path><path d="M66.9111492,47.3313835 C71.0423607,47.3313835 74.391369,43.9266526 74.391369,39.7267035 C74.391369,35.5267547 71.0423607,32.1220238 66.9111492,32.1220238 C62.7799376,32.1220238 59.4309291,35.5267547 59.4309291,39.7267035 C59.4309291,43.9266526 62.7799376,47.3313835 66.9111492,47.3313835 C66.9111492,47.3313835 62.7799376,47.3313835 66.9111492,47.3313835 L66.9111492,47.3313835 L66.9111492,47.3313835 Z"></path><path d="M97.1517857,50.5 C97.1517857,24.7349302 76.2650698,3.84821429 50.5,3.84821429 C24.7349302,3.84821429 3.84821429,24.7349302 3.84821429,50.5 C3.84821429,76.2650698 24.7349302,97.1517857 50.5,97.1517857 C76.2650698,97.1517857 97.1517857,76.2650698 97.1517857,50.5 Z M8.9375,50.5 C8.9375,27.5456651 27.5456651,8.9375 50.5,8.9375 C73.4543349,8.9375 92.0625,27.5456651 92.0625,50.5 C92.0625,73.4543349 73.4543349,92.0625 50.5,92.0625 C27.5456651,92.0625 8.9375,73.4543349 8.9375,50.5 Z"></path><path d="M33.8241891,66.1654888 C35.090695,66.8169178 36.5000543,67.4665043 38.0210304,68.0730099 C42.4150045,69.8251545 46.8520479,70.8819739 51.1078574,70.8819739 C51.2677476,70.8819739 51.4281876,70.880398 51.5891688,70.877262 C55.6432482,70.7982866 59.8953446,69.7556764 64.1343186,68.0748269 C65.6611367,67.4694089 67.0805196,66.8211235 68.3595263,66.1711514 C69.1373236,65.7758865 69.7045656,65.4623999 70.0271447,65.2716059 L67.436273,60.8911706 C67.3877785,60.9198534 67.2748315,60.9845375 67.1019688,61.0800702 C66.8021234,61.2457798 66.4512282,61.4321748 66.0538682,61.6341073 C64.9088337,62.2159967 63.6311275,62.799573 62.2583956,63.3438924 C58.5385707,64.8188874 54.8492621,65.7235025 51.4900459,65.7889417 C51.3619619,65.7914368 51.234562,65.7926882 51.1078574,65.7926882 C47.5881363,65.7926882 43.7500502,64.878529 39.9060925,63.3457094 C38.5437924,62.8024776 37.2804736,62.2202025 36.1519988,61.6397699 C35.7606727,61.4384908 35.4157075,61.2527753 35.121471,61.0877682 C34.9522711,60.9928814 34.8422329,60.9288598 34.7956766,60.9008544 L32.1723356,65.2619221 C32.4918697,65.4541335 33.0532728,65.7689669 33.8241891,66.1654888 Z"></path></g></svg>